<?xml version="1.0" standalone="no"?>
<!DOCTYPE svg PUBLIC "-//W3C//DTD SVG 20010904//EN"
 "http://www.w3.org/TR/2001/REC-SVG-20010904/DTD/svg10.dtd">
<svg version="1.0" xmlns="http://www.w3.org/2000/svg"
 width="888.000000pt" height="440.000000pt" viewBox="0 0 888.000000 440.000000"
 preserveAspectRatio="xMidYMid meet">

<g transform="translate(0.000000,440.000000) scale(0.100000,-0.100000)"
fill="#000000" stroke="none">
<path d="M0 2200 l0 -2200 4440 0 4440 0 0 2200 0 2200 -4440 0 -4440 0 0
-2200z m4646 1573 c-3 -10 -21 -85 -41 -168 -55 -231 -235 -964 -250 -1020
-29 -106 -65 -257 -65 -273 0 -9 -4 -22 -8 -29 -6 -10 -200 -38 -208 -30 -2 1
10 57 27 122 17 66 39 156 49 200 10 44 29 118 40 165 12 47 30 121 40 165 29
120 50 204 66 260 8 28 18 70 24 95 5 25 18 81 27 125 10 44 25 85 33 92 10 9
11 12 3 13 -16 0 -17 37 -2 42 5 2 13 24 16 48 4 25 13 50 22 57 11 8 12 12 4
13 -7 0 -13 9 -13 21 0 11 4 18 9 14 6 -3 13 15 16 40 8 48 9 49 105 58 93 10
112 8 106 -10z m204 -313 c0 -5 11 -10 24 -10 13 0 45 -8 72 -19 55 -21 135
-47 269 -87 160 -48 405 -132 429 -147 24 -16 23 -13 30 -181 1 -39 1 -40 -74
-78 -41 -21 -76 -43 -78 -48 -2 -6 -10 -10 -17 -10 -17 0 -103 -45 -125 -65
-9 -8 -23 -15 -32 -15 -8 0 -27 -9 -41 -20 -14 -11 -32 -20 -40 -20 -8 0 -26
-9 -40 -20 -14 -11 -30 -20 -35 -20 -13 0 -125 -59 -132 -69 -3 -5 -16 -12
-30 -16 -14 -4 -27 -11 -30 -15 -7 -9 -100 -53 -104 -49 -5 6 -26 195 -26 233
0 32 3 36 25 36 14 0 33 9 42 20 10 11 27 20 39 20 11 0 31 9 44 20 13 11 31
20 40 20 10 0 57 20 106 45 48 25 95 45 105 45 9 0 22 7 29 15 7 8 23 15 36
15 22 0 41 16 31 27 -5 4 -276 76 -462 122 l-70 17 -7 95 c-3 52 -9 111 -12
132 -6 32 -4 37 14 37 11 0 20 -4 20 -10z m-976 -115 c3 -22 8 -82 12 -132 l7
-93 -31 -6 c-18 -4 -37 -13 -43 -20 -6 -8 -19 -14 -29 -14 -9 0 -29 -9 -43
-20 -14 -11 -31 -20 -39 -20 -7 0 -28 -9 -46 -20 -18 -11 -38 -20 -45 -20 -6
0 -52 -20 -101 -45 -49 -25 -97 -45 -107 -45 -37 0 -18 -15 39 -32 84 -25 316
-86 399 -105 83 -19 78 -12 88 -153 3 -47 8 -95 12 -107 6 -26 2 -27 -41 -13
-17 5 -101 32 -186 59 -612 196 -609 195 -615 225 -2 12 -6 58 -9 104 -5 70
-3 85 12 100 10 10 80 49 155 86 75 37 137 72 137 77 0 5 11 9 25 9 14 0 29 8
35 20 6 11 21 20 34 20 13 0 31 9 41 20 10 11 29 20 42 20 13 0 31 9 40 20 10
11 27 20 39 20 11 0 29 9 39 20 10 11 28 20 39 20 12 0 29 9 39 20 9 11 26 20
37 20 11 0 25 9 32 20 16 25 26 15 32 -35z m1088 -1551 c21 -4 35 -10 33 -15
-3 -4 11 -11 31 -15 19 -3 38 -13 41 -20 3 -8 14 -14 24 -14 12 0 23 -10 29
-25 5 -14 16 -25 25 -25 8 0 15 -9 15 -19 0 -11 8 -26 19 -33 10 -7 21 -27 25
-45 4 -17 14 -34 22 -37 19 -7 18 -26 -3 -26 -15 0 -15 -2 2 -14 16 -12 20
-31 23 -140 5 -137 -9 -223 -49 -306 -21 -43 -122 -150 -141 -150 -6 0 -16 -6
-22 -14 -19 -24 -185 -42 -255 -28 -135 28 -234 120 -283 260 -20 58 -23 86
-23 212 1 130 3 149 23 187 12 23 22 51 22 63 0 11 9 25 20 32 11 7 20 23 20
35 0 14 6 23 15 23 9 0 20 11 25 24 6 18 14 23 28 19 14 -3 22 1 27 16 5 16
15 21 41 21 23 0 34 5 34 14 0 10 13 16 38 19 65 7 156 7 194 1z m1718 -4 c14
-4 21 -9 15 -9 -16 -2 18 -21 38 -21 28 0 97 -61 120 -105 11 -22 26 -62 33
-88 15 -59 16 -59 -96 -55 l-84 3 -9 36 c-17 71 -92 107 -188 89 -98 -18 -130
-92 -67 -157 18 -18 39 -33 48 -33 8 0 24 -6 35 -14 11 -7 36 -17 55 -21 19
-4 54 -16 77 -26 23 -11 44 -19 48 -19 11 0 90 -55 103 -72 7 -10 20 -18 28
-18 8 0 14 -9 14 -20 0 -10 7 -23 15 -27 23 -13 32 -157 13 -203 -50 -118
-185 -181 -358 -166 -88 8 -150 23 -150 36 0 6 -10 10 -23 10 -26 0 -92 65
-126 124 -12 21 -24 58 -28 82 l-6 44 96 0 95 0 7 -37 c17 -92 149 -141 257
-94 26 11 39 24 43 43 4 15 10 30 15 33 12 8 -25 86 -46 98 -21 12 -95 40
-174 67 -71 24 -140 58 -140 69 0 5 -13 14 -30 20 -16 5 -30 14 -30 20 0 5
-11 22 -25 37 -14 15 -25 37 -25 48 0 12 -4 26 -10 32 -14 14 6 123 28 154 11
14 22 35 26 48 4 12 15 22 26 22 11 0 24 9 30 20 7 13 21 20 40 20 16 0 33 6
37 14 4 8 24 16 43 19 61 7 204 5 230 -3z m-5105 -10 c-4 -6 6 -10 22 -10 49
0 202 -95 203 -126 0 -7 11 -19 25 -28 15 -10 25 -26 25 -40 0 -13 6 -29 14
-35 22 -18 39 -152 33 -259 -7 -138 -38 -210 -122 -291 -104 -100 -176 -121
-415 -121 l-160 0 0 460 0 460 191 0 c124 0 188 -3 184 -10z m1070 -70 l0 -75
-207 -3 -208 -2 0 -110 0 -110 180 0 181 0 -3 -67 -3 -68 -177 -3 -178 -2 0
-120 0 -120 208 -2 207 -3 0 -75 0 -75 -305 0 -305 0 -3 435 c-1 239 0 445 3
458 l5 22 303 -2 302 -3 0 -75z m265 8 c12 -40 33 -105 46 -145 13 -39 24 -79
24 -87 0 -9 4 -24 10 -34 5 -9 25 -71 43 -137 19 -66 43 -138 52 -160 l18 -40
7 45 c4 25 14 65 23 90 30 84 67 205 67 221 0 9 7 22 15 29 13 11 13 15 3 22
-9 6 -10 10 -2 16 6 4 15 23 19 42 4 19 13 48 20 65 7 16 20 56 29 88 l17 57
99 0 c69 0 100 -4 102 -12 3 -7 -8 -44 -22 -83 -15 -38 -44 -122 -65 -185 -20
-63 -48 -144 -61 -180 -49 -128 -63 -167 -110 -312 l-47 -148 -99 0 -98 0 -15
38 c-9 20 -30 78 -47 127 -17 50 -34 95 -38 100 -4 6 -10 25 -14 43 -3 19 -12
48 -20 65 -7 18 -19 52 -26 77 -8 25 -17 49 -22 54 -4 6 -8 18 -8 28 0 10 -4
26 -9 36 -4 9 -14 33 -20 52 -7 19 -30 85 -52 145 -57 161 -59 155 60 155 l98
0 23 -72z m878 -120 l2 -188 180 0 180 0 0 190 0 191 93 -3 c50 -2 91 -6 90
-10 -2 -5 -3 -211 -3 -458 l0 -451 -87 3 -88 3 -3 191 c-2 189 -3 192 -25 198
-12 3 -93 6 -179 6 l-158 0 0 -195 c0 -226 10 -208 -120 -203 l-75 3 -3 435
c-1 239 0 445 3 458 5 22 9 23 98 20 l92 -3 3 -187z m1776 170 c3 -13 6 -168
6 -344 0 -277 2 -323 15 -328 8 -3 15 -15 15 -26 0 -11 8 -23 18 -26 9 -3 25
-10 34 -15 10 -5 44 -9 76 -9 66 0 117 26 139 70 9 19 13 113 13 363 l0 337
101 0 100 0 -3 -347 c-3 -330 -5 -350 -25 -394 -32 -70 -80 -117 -152 -152
-62 -30 -73 -32 -177 -32 -101 1 -116 3 -163 28 -29 15 -59 27 -67 27 -8 0
-14 4 -14 9 0 7 -22 35 -64 81 -33 35 -39 95 -43 423 -3 180 -2 334 1 342 4
12 25 15 95 15 84 0 89 -1 95 -22z m2064 -55 c3 -68 2 -73 -20 -78 -13 -3
-107 -5 -211 -3 l-187 3 0 -112 0 -113 180 0 181 0 -3 -67 -3 -68 -177 -3
-178 -2 0 -120 0 -120 210 0 210 0 0 -80 0 -80 -302 2 -303 3 -3 458 -2 457
302 -2 303 -3 3 -72z"/>
<path d="M4817 1633 c-21 -2 -41 -11 -44 -19 -3 -8 -13 -14 -23 -14 -20 0 -44
-40 -65 -109 -27 -87 -17 -309 16 -374 18 -34 61 -77 78 -77 9 0 24 -7 33 -14
13 -9 33 -11 74 -5 47 6 64 14 95 45 49 48 68 106 75 224 6 102 -13 228 -39
259 -8 9 -17 24 -20 34 -4 9 -13 17 -21 17 -8 0 -21 7 -29 15 -17 16 -74 25
-130 18z"/>
<path d="M1390 1330 l0 -300 68 0 c89 0 131 13 171 52 61 60 75 106 76 250 0
89 -4 131 -12 139 -7 7 -13 23 -13 34 0 23 -58 95 -77 95 -6 0 -16 7 -23 15
-9 11 -35 15 -101 15 l-89 0 0 -300z"/>
</g>
</svg>
